<svg xmlns="http://www.w3.org/2000/svg" id="Layer_2" viewBox="0 0 155 155"><defs><style>.cls-1{fill:#ff5543}</style></defs><g id="Flattened"><g id="pictogram-dark-mode"><path d="m62.44 42.8 18.78 5.01L68.43 0 46.77 5.83l7.71 28.99c1.03 3.89 4.08 6.95 7.96 7.98ZM45.66 125.24l6.02-6.01 17.39-17.35 1.63-1.63.96-.96.35 1.31.6 2.23 4.31 16.11 4.22 15.76 5.43 20.3 21.66-5.83-5.45-20.48-.21-.71-15.92-59.7L26.9 52.35l-.75-.19-.44-.12v-.02l-19.95-5.3L0 68.5l20.23 5.41 11.18 2.99 20.7 5.53 2.24.6 1.31.35-.96.96-1.63 1.64-11.85 11.85-11.53 11.54-14.83 14.84 15.83 15.97 14.97-14.94zM107.08 73.69l5.03 18.86c1.04 3.89 4.09 6.94 7.96 7.97l29.16 7.75 5.76-21.78-47.92-12.81ZM124.31 14.82l-18.65 18.61a11.276 11.276 0 0 0-3.31 7.71l-.3 11.81 10.51.38h.41c2.99 0 5.8-1.17 7.91-3.28l19.25-19.27-15.83-15.97Z" class="cls-1"/></g></g></svg>